<?xml version="1.0" standalone="no"?>
<!DOCTYPE svg PUBLIC "-//W3C//DTD SVG 20010904//EN"
 "http://www.w3.org/TR/2001/REC-SVG-20010904/DTD/svg10.dtd">
<svg version="1.0" xmlns="http://www.w3.org/2000/svg"
 width="192.000000pt" height="192.000000pt" viewBox="0 0 192.000000 192.000000"
 preserveAspectRatio="xMidYMid meet">
<metadata>
Created by potrace 1.14, written by Peter Selinger 2001-2017
</metadata>
<g transform="translate(0.000000,192.000000) scale(0.100000,-0.100000)"
fill="#000000" stroke="none">
<path d="M0 960 l0 -960 960 0 960 0 0 960 0 960 -960 0 -960 0 0 -960z m647
312 c53 -28 98 -82 114 -141 9 -28 14 -96 14 -176 0 -161 -16 -215 -80 -273
-54 -51 -94 -62 -222 -62 l-103 0 0 341 0 341 118 -4 c96 -3 124 -8 159 -26z
m313 25 c0 -1 20 -113 45 -247 25 -135 45 -258 45 -274 0 -64 19 -3 69 219 75
332 66 307 104 303 l31 -3 60 -272 c55 -247 75 -310 76 -235 1 15 20 135 44
267 l42 240 37 3 c20 2 37 -1 37 -6 0 -6 -29 -156 -65 -335 -36 -179 -65 -328
-65 -332 0 -3 -17 -5 -37 -3 l-36 3 -62 270 c-35 149 -65 263 -68 255 -4 -8
-18 -64 -32 -125 -50 -221 -86 -370 -91 -387 -4 -13 -16 -18 -39 -18 -28 0
-36 5 -40 23 -17 71 -125 625 -125 640 0 13 8 17 35 17 19 0 35 -1 35 -3z"/>
<path d="M457 1232 c-16 -3 -17 -27 -15 -275 l3 -272 71 1 c84 0 132 24 160
82 16 31 19 61 19 192 0 171 -10 211 -63 247 -25 17 -136 32 -175 25z"/>
</g>
</svg>
